<?xml version="1.0" encoding="UTF-8" standalone="no"?>
<!-- Created with Inkscape (http://www.inkscape.org/) -->

<svg
   version="1.1"
   id="svg1061"
   width="1333.3333"
   height="1333.3333"
   viewBox="0 0 1333.3333 1333.3333"
   sodipodi:docname="rusthdl-logo-color-RGB-PDF.pdf"
   inkscape:version="1.2.2 (b0a8486, 2022-12-01)"
   xmlns:inkscape="http://www.inkscape.org/namespaces/inkscape"
   xmlns:sodipodi="http://sodipodi.sourceforge.net/DTD/sodipodi-0.dtd"
   xmlns="http://www.w3.org/2000/svg"
   xmlns:svg="http://www.w3.org/2000/svg">
  <defs
     id="defs1065">
    <clipPath
       clipPathUnits="userSpaceOnUse"
       id="clipPath1077">
      <path
         d="M 0,1000 H 1000 V 0 H 0 Z"
         id="path1075" />
    </clipPath>
  </defs>
  <sodipodi:namedview
     id="namedview1063"
     pagecolor="#ffffff"
     bordercolor="#666666"
     borderopacity="1.0"
     inkscape:showpageshadow="2"
     inkscape:pageopacity="0.0"
     inkscape:pagecheckerboard="0"
     inkscape:deskcolor="#d1d1d1"
     showgrid="false"
     inkscape:zoom="0.65775006"
     inkscape:cx="580.76771"
     inkscape:cy="665.90643"
     inkscape:window-width="1419"
     inkscape:window-height="952"
     inkscape:window-x="0"
     inkscape:window-y="25"
     inkscape:window-maximized="0"
     inkscape:current-layer="g1069">
    <inkscape:page
       x="0"
       y="0"
       id="page1067"
       width="1333.3333"
       height="1333.3333" />
  </sodipodi:namedview>
  <g
     id="g1069"
     inkscape:groupmode="layer"
     inkscape:label="Page 1"
     transform="matrix(1.3333333,0,0,-1.3333333,0,1333.3333)">
    <g
       id="g1071"
       transform="translate(-46.750282,-13.683009)">
      <g
         id="g1073"
         clip-path="url(#clipPath1077)">
        <g
           id="g1079"
           transform="translate(332.0972,503.2114)">
          <path
             d="m 0,0 c 0,-3.035 -2.46,-5.495 -5.495,-5.495 -3.034,0 -5.494,2.46 -5.494,5.495 0,3.035 2.46,5.495 5.494,5.495 C -2.46,5.495 0,3.035 0,0"
             style="fill:#231f20;fill-opacity:1;fill-rule:nonzero;stroke:none"
             id="path1081" />
        </g>
        <g
           id="g1083"
           transform="translate(355.0522,503.2114)">
          <path
             d="m 0,0 c 0,-3.035 -2.46,-5.495 -5.495,-5.495 -3.034,0 -5.494,2.46 -5.494,5.495 0,3.035 2.46,5.495 5.494,5.495 C -2.46,5.495 0,3.035 0,0"
             style="fill:#231f20;fill-opacity:1;fill-rule:nonzero;stroke:none"
             id="path1085" />
        </g>
        <g
           id="g1087"
           transform="translate(344.8325,484.21)">
          <path
             d="m 0,0 -9.45,-35.75 h -5.29 L -5.29,0 Z"
             style="fill:#e43c26;fill-opacity:1;fill-rule:nonzero;stroke:none"
             id="path1089" />
        </g>
        <g
           id="g1091"
           transform="translate(380.6621,497.6797)">
          <path
             d="m 0,0 c -11.53,-3.109 -26.28,-4.979 -42.35,-4.979 -16.05,0 -30.78,1.87 -42.32,4.969 v 0.05 c 0.06,0.641 0.15,1.271 0.23,1.91 0.7,4.73 2.18,9.2 4.29,13.29 1.3,2.49 4.64,3.031 6.65,1.06 1.37,-1.35 3.18,-2.04 4.98,-2.04 1.64,0 3.27,0.57 4.53,1.79 2.72,2.62 2.73,6.95 0.04,9.58 -0.92,0.92 -1.37,2.09 -1.37,3.27 0,1.6 0.84,3.2 2.42,4.07 2.56,1.43 5.29,2.59 8.15,3.46 2.86,0.87 5.73,-1.32 5.73,-4.3 0,-1.78 0.67,-3.44 1.79,-4.69 1.11,-1.25 2.68,-2.09 4.45,-2.2 3.89,-0.26 7.12,2.83 7.12,6.67 0,2.65 2.18,4.631 4.66,4.631 0.48,0 0.96,-0.071 1.43,-0.221 2.87,-0.9 5.6,-2.1 8.18,-3.57 2.51,-1.42 2.92,-4.89 0.86,-6.92 -1.41,-1.37 -2.16,-3.23 -2.16,-5.09 0,-1.39 0.43,-2.77 1.33,-3.94 2.5,-3.22 7.16,-3.47 9.98,-0.7 0.87,0.85 1.98,1.26 3.08,1.26 1.56,0 3.11,-0.819 3.89,-2.38 2.06,-4.01 3.49,-8.4 4.17,-13.03 C -0.15,1.311 -0.07,0.681 0,0.04 H -0.02 Z M 22.32,2.541 16.69,1.91 c 0.03,0.01 0.05,0.03 0.07,0.04 C 13.85,2.68 11.2,4.31 9.22,6.61 8,8.021 7.04,9.69 6.43,11.58 c -0.6,1.88 -0.81,3.78 -0.66,5.63 0.23,3.04 1.43,5.92 3.36,8.24 -2.99,-0.51 -6.1,-0.1 -8.86,1.23 -1.65,0.79 -3.18,1.92 -4.5,3.38 -1.3,1.44 -2.27,3.09 -2.88,4.81 -1.03,2.88 -1.12,6.02 -0.3,8.94 -2.51,-1.68 -5.5,-2.57 -8.56,-2.48 -1.85,0.05 -3.72,0.461 -5.51,1.26 -1.8,0.79 -3.36,1.92 -4.64,3.27 -2.09,2.21 -3.43,5.02 -3.87,8 -1.6,-2.55 -3.97,-4.569 -6.77,-5.74 -1.72,-0.7 -3.6,-1.099 -5.58,-1.099 -1.98,0 -3.86,0.399 -5.57,1.099 -2.82,1.171 -5.18,3.19 -6.79,5.74 -0.43,-2.98 -1.77,-5.79 -3.85,-8 -1.29,-1.35 -2.84,-2.48 -4.65,-3.27 -1.8,-0.799 -3.67,-1.21 -5.52,-1.26 -3.04,-0.09 -6.04,0.8 -8.55,2.48 0.82,-2.92 0.74,-6.06 -0.31,-8.95 -0.61,-1.71 -1.56,-3.36 -2.88,-4.8 -1.29,-1.46 -2.82,-2.58 -4.49,-3.38 -2.76,-1.33 -5.87,-1.74 -8.86,-1.23 1.94,-2.33 3.12,-5.21 3.35,-8.26 0.16,-1.84 -0.04,-3.74 -0.65,-5.61 -0.61,-1.88 -1.56,-3.539 -2.78,-4.96 -1.98,-2.31 -4.63,-3.93 -7.55,-4.67 0.02,-0.01 0.04,-0.03 0.07,-0.04 l -5.64,0.631 c -2.68,0.299 -4.91,-2.011 -4.53,-4.681 l 3.08,-21.099 22.23,-11.881 -12.28,19.2 5.33,4.26 12.52,-18.159 18.53,-12.691 h 10.78 l -16.92,12.691 16.92,12.689 h -10.78 l -12.79,-8.76 -11.17,16.27 H 1.39 l -11.16,-16.27 -12.8,8.76 h -10.78 l 16.92,-12.689 -16.92,-12.691 h 10.78 l 18.53,12.691 12.52,18.17 5.34,-4.271 -12.28,-19.2 22.23,11.881 3.07,21.099 C 27.23,0.53 25,2.84 22.32,2.541"
             style="fill:#e43c26;fill-opacity:1;fill-rule:nonzero;stroke:none"
             id="path1093" />
        </g>
        <g
           id="g1095"
           transform="translate(463.1494,496.1328)">
          <path
             d="M 0,0 C -1.694,-1.695 -3.721,-2.542 -6.08,-2.542 H -17.244 V 16.557 H -6.08 c 2.359,0 4.386,-0.848 6.08,-2.542 C 1.742,11.977 2.611,9.641 2.611,7.007 2.611,4.373 1.742,2.037 0,0 m 7.422,21.435 c -3.735,3.756 -8.233,5.634 -13.502,5.634 h -11.164 -5.36 -4.707 v -50.395 h 10.067 v 10.27 h 11.061 l 5.806,-10.27 h 11.543 l -7.351,13.054 c 1.328,0.8 2.529,1.752 3.607,2.85 2.542,2.612 4.231,5.669 5.066,9.173 0.837,3.504 0.837,7.013 0,10.529 -0.835,3.515 -2.524,6.567 -5.066,9.155"
             style="fill:#000000;fill-opacity:1;fill-rule:nonzero;stroke:none"
             id="path1097" />
        </g>
        <g
           id="g1099"
           transform="translate(512.001,491.3906)">
          <path
             d="m 0,0 c 0,-2.381 -0.849,-4.42 -2.542,-6.113 -2.039,-1.741 -4.375,-2.613 -7.008,-2.613 -2.635,0 -4.983,0.872 -7.043,2.613 -1.695,1.693 -2.542,3.732 -2.542,6.113 V 31.811 H -29.613 V 0 c 0,-5.267 1.878,-9.778 5.634,-13.533 2.587,-2.521 5.639,-4.197 9.155,-5.033 3.516,-0.837 7.025,-0.837 10.529,0 3.504,0.836 6.561,2.512 9.173,5.033 C 8.61,-9.778 10.477,-5.267 10.477,0 V 31.811 H 0 Z"
             style="fill:#000000;fill-opacity:1;fill-rule:nonzero;stroke:none"
             id="path1101" />
        </g>
        <g
           id="g1103"
           transform="translate(579.7734,523.2363)">
          <path
             d="m 0,0 h -33.318 c -4.741,0 -8.531,-1.002 -11.371,-3.006 -2.839,-2.004 -4.735,-4.454 -5.685,-7.351 -0.951,-2.898 -0.951,-5.795 0,-8.691 0.95,-2.898 2.846,-5.348 5.685,-7.352 2.84,-2.004 6.63,-3.006 11.371,-3.006 l 5.633,0.034 c 2.818,0 4.719,-0.881 5.704,-2.645 0.984,-1.763 1.012,-3.521 0.085,-5.273 -0.927,-1.752 -2.857,-2.628 -5.789,-2.628 H -47.85 V -50.43 h 20.165 c 4.673,0 8.405,1.076 11.2,3.23 2.794,2.151 4.654,4.78 5.583,7.884 0.926,3.102 0.926,6.212 0,9.327 -0.929,3.114 -2.789,5.742 -5.583,7.884 -2.795,2.14 -6.527,3.211 -11.2,3.211 h -5.633 c -2.839,0 -4.745,0.698 -5.72,2.096 -0.974,1.397 -0.99,2.798 -0.051,4.208 0.938,1.408 2.862,2.112 5.771,2.112 H -2.022 V -50.43 H 8.042 V -10.1 H 20.101 V -0.035 H 0.007 Z"
             style="fill:#000000;fill-opacity:1;fill-rule:nonzero;stroke:none"
             id="path1105" />
        </g>
        <g
           id="g1107"
           transform="translate(637.1885,501.208)">
          <path
             d="m 0,0 h -25.478 v 21.994 h -6.408 v -50.395 h 6.408 V -6.408 H 0 V -28.401 H 6.408 V 21.994 H 0 Z"
             style="fill:#000000;fill-opacity:1;fill-rule:nonzero;stroke:none"
             id="path1109" />
        </g>
        <g
           id="g1111"
           transform="translate(681.958,485.0986)">
          <path
             d="m 0,0 -0.021,-0.023 -0.022,-0.022 c -3.553,-3.552 -7.892,-5.353 -12.895,-5.353 h -12.664 v 36.607 h 12.664 c 5.003,0 9.342,-1.801 12.895,-5.354 L -0.021,25.833 0,25.811 C 3.522,22.091 5.309,17.749 5.309,12.906 5.309,8.063 3.522,3.721 0,0 m 4.795,30.739 c -2.455,2.449 -5.184,4.308 -8.11,5.526 -2.934,1.219 -6.171,1.838 -9.623,1.838 H -32.01 v -50.395 h 19.072 c 3.452,0 6.689,0.619 9.623,1.839 2.926,1.218 5.656,3.077 8.112,5.528 2.468,2.599 4.339,5.414 5.56,8.368 1.218,2.943 1.833,6.125 1.829,9.458 -0.007,3.337 -0.628,6.522 -1.847,9.468 -1.222,2.954 -3.088,5.77 -5.544,8.37"
             style="fill:#000000;fill-opacity:1;fill-rule:nonzero;stroke:none"
             id="path1113" />
        </g>
        <g
           id="g1115"
           transform="translate(706.9023,479.2129)">
          <path
             d="M 0,0 V 43.989 H -6.407 V -6.406 H 24.018 V 0 Z"
             style="fill:#000000;fill-opacity:1;fill-rule:nonzero;stroke:none"
             id="path1117" />
        </g>
      </g>
    </g>
  </g>
</svg>
